<svg width="17" height="16" viewBox="0 0 17 16" fill="none" xmlns="http://www.w3.org/2000/svg">
<path d="M12.7992 1.60261C13.4765 1.59736 14.1002 1.54862 14.7156 1.87332C16.6853 2.91215 15.8012 5.47773 15.9996 7.26518C15.9396 7.91983 15.1365 8.25402 14.6479 7.7901C14.5691 7.71536 14.3989 7.4394 14.3989 7.33917V6.40182H1.60099V13.7131C1.60099 14.0193 2.02942 14.4058 2.33887 14.4L7.33155 14.4065C8.23265 14.6005 8.21415 15.8278 7.31055 15.9983L2.21389 16C1.03333 15.8955 0.0874857 14.9492 0 13.7641V3.86349C0.0744878 2.65044 1.05233 1.67535 2.26213 1.60161C2.56783 1.58287 2.89278 1.61761 3.20048 1.60261V0.665266C3.20048 0.63902 3.27196 0.468048 3.29071 0.430555C3.52992 -0.0411182 4.18531 -0.142352 4.56375 0.226588C4.64524 0.306075 4.80021 0.58278 4.80021 0.690012V1.56487L4.83771 1.60236H11.1617L11.1992 1.56487V0.690262C11.1992 0.27583 11.7241 -0.0436177 12.1095 0.00487432C12.3872 0.0398686 12.7989 0.371814 12.7989 0.665266V1.60261H12.7992ZM14.3989 4.80209V3.88974C14.3989 3.58529 13.99 3.2156 13.6868 3.2021L2.26938 3.20835C1.98343 3.23884 1.60099 3.60028 1.60099 3.88974V4.80209H14.3989Z" fill="#212425"/>
<path d="M9.26576 14.9109C7.22934 12.9999 7.72901 9.62124 10.2411 8.40594C13.4483 6.85419 16.9218 9.92644 15.7857 13.3006C14.8618 16.0447 11.3809 16.8955 9.26576 14.9109ZM11.7948 9.60949C9.9429 9.76346 8.95606 11.9199 10.0649 13.4241C11.116 14.8504 13.3283 14.6752 14.134 13.0982C14.9908 11.4207 13.6673 9.45376 11.7948 9.60924V9.60949Z" fill="#212425"/>
<path d="M11.8938 10.009C12.278 9.9673 12.6439 10.179 12.7607 10.5529C12.8621 10.8781 12.7609 11.3156 12.8044 11.659C13.0839 12.0117 13.5763 12.2667 13.6003 12.7628C13.6293 13.365 13.0059 13.7782 12.457 13.5312C12.2737 13.4487 11.5624 12.7361 11.4116 12.5519C11.2874 12.3999 11.2142 12.2387 11.1987 12.04C11.1757 11.7488 11.1629 10.7742 11.2419 10.5315C11.3299 10.2605 11.6131 10.0395 11.8938 10.0088V10.009Z" fill="#212425"/>
</svg>
