<svg width="29" height="21" viewBox="0 0 29 21" fill="none" xmlns="http://www.w3.org/2000/svg">
<path d="M13.6408 10.0553C21.7608 9.09848 22.1239 20.8639 14.6186 20.9988C7.5634 21.1257 7.05711 10.8309 13.6408 10.0553ZM15.9861 13.4729C15.5954 13.5897 13.5887 15.9678 13.4087 15.9678C13.0875 15.7099 12.6549 15.0381 12.1946 15.0884C11.7691 15.1348 11.4817 15.6616 11.672 16.0685C11.7139 16.1591 12.9944 17.402 13.1182 17.4695C13.3688 17.6055 13.513 17.5551 13.7574 17.4212L16.8852 14.3562C17.0836 13.7378 16.6264 13.2815 15.9861 13.4729Z" fill="#3FA53F"/>
<path d="M4.65693 15.672C3.25546 15.4832 1.79072 14.2341 1.30498 12.9263C0.17158 9.87756 2.33115 6.8822 5.56836 6.92487C5.82035 3.6703 9.37067 1.61472 12.3806 2.83612C16.3802 -0.941147 22.9232 1.44831 23.4862 6.91527C27.2659 6.88434 29.4073 11.2355 26.9518 14.1701C26.51 14.6981 25.0635 15.6731 24.3879 15.6731H21.3319C21.496 15.3328 21.496 14.9477 21.3319 14.6063H24.1735C25.0131 14.6063 26.2837 13.4074 26.6054 12.6521C27.8267 9.78049 25.2018 7.56064 22.4042 7.99373C22.7281 2.62064 16.1754 -0.0354991 12.6851 4.13646C9.66876 2.51717 6.39509 4.60688 6.53556 7.9948C3.50959 7.48597 0.861056 10.2808 2.62924 13.1033C2.98095 13.6644 4.10792 14.6053 4.76523 14.6053H7.60677V15.672C6.68461 15.5835 5.55228 15.7925 4.658 15.672H4.65693Z" fill="#212425" stroke="#212425" stroke-width="0.5"/>
</svg>
