<svg width="77" height="44" viewBox="0 0 77 44" fill="none" xmlns="http://www.w3.org/2000/svg">
<path d="M64.3279 44H1.29916C0.287665 44 -0.344527 42.8621 0.224439 41.977L9.20146 22.6954C9.51755 22.2529 9.51755 21.6839 9.20146 21.2414L0.224439 2.023C-0.344527 1.13794 0.224446 0 1.29916 0H64.3279C65.4026 0 66.3509 0.505755 66.9831 1.39081L76.1497 20.1667C76.9084 21.2414 76.9084 22.6954 76.1497 23.7701L66.9831 42.6092C66.4141 43.4943 65.4026 44 64.3279 44Z" fill="#3FA53F"/>
<path d="M21.8255 18.0225C21.8255 16.8642 22.1013 15.706 22.4322 14.658C22.8183 13.61 23.3699 12.6724 24.1421 11.9002C24.9142 11.128 25.8519 10.4661 27.0102 10.0249C28.1684 9.58365 29.4922 9.36304 31.0365 9.36304C32.5809 9.36304 33.7943 9.58365 34.8974 10.0249C36.0006 10.4661 36.9382 10.9626 37.6552 11.6244C38.3722 12.2863 38.979 12.9482 39.3099 13.6652C39.696 14.3822 39.8614 15.0441 39.9166 15.5956C39.9166 15.8163 39.9166 15.9817 39.696 16.092C39.4754 16.2023 39.365 16.3127 39.1996 16.3127H37.8759C37.3795 16.3127 37.0485 16.2024 36.9382 15.9817C36.6624 15.4853 36.3866 14.9889 36.0557 14.5477C35.7248 14.1064 35.3387 13.7203 34.8974 13.3894C34.4562 13.0585 33.9046 12.7827 33.2428 12.6172C32.5809 12.3966 31.8639 12.3414 30.9814 12.3414C30.0989 12.3414 29.2715 12.4518 28.5545 12.7275C27.8375 13.0033 27.1756 13.3343 26.6241 13.8307C26.0725 14.3271 25.6313 14.9338 25.3555 15.706C25.0246 16.423 24.8591 17.3055 24.8591 18.2983C24.8591 19.2911 24.8039 20.1736 24.8039 21.0009C24.8039 21.8282 24.8039 22.7107 24.8591 23.7035C24.8591 24.7515 25.0797 25.634 25.3555 26.4062C25.6864 27.1783 26.1277 27.8402 26.6241 28.3366C27.1756 28.833 27.7823 29.2191 28.5545 29.4949C29.2715 29.7707 30.0989 29.881 30.9814 29.881C31.8639 29.881 32.636 29.7707 33.4082 29.5501C34.1804 29.3294 34.8423 28.9985 35.3939 28.5021C35.9454 28.0057 36.3866 27.399 36.7176 26.6268C37.0485 25.8546 37.214 24.917 37.214 23.7587V22.8762H32.5809C32.3603 22.8762 32.1397 22.7659 31.9742 22.6004C31.8087 22.435 31.6984 22.2143 31.6984 21.9937V20.8354C31.6984 20.6148 31.8087 20.3942 31.9742 20.2287C32.1397 20.0632 32.3603 19.9529 32.5809 19.9529H39.4202C39.6408 19.9529 39.8614 20.0632 40.0269 20.2287C40.1924 20.3942 40.3027 20.6148 40.3027 20.8354V23.9242C40.3027 25.1927 40.0821 26.4062 39.696 27.5093C39.3099 28.6124 38.7032 29.55 37.8759 30.3222C37.0485 31.0944 36.1109 31.7011 34.9526 32.1424C33.7943 32.5836 32.4706 32.8042 31.0365 32.8042C29.6025 32.8042 28.1133 32.5836 27.0102 32.0872C25.8519 31.646 24.9142 30.9841 24.1421 30.2119C23.3699 29.4397 22.8183 28.5021 22.4322 27.399C22.0462 26.2958 21.8255 25.1376 21.7704 23.9242C21.7152 22.0489 21.7152 20.1184 21.7704 18.2431L21.8255 18.0225Z" fill="white"/>
<path d="M51.3334 15.1541C52.4917 15.1541 53.5396 15.3195 54.4221 15.7056C55.3046 16.0917 56.0768 16.5329 56.7386 17.1948C57.4005 17.8567 57.8969 18.5737 58.283 19.4562C58.6691 20.3387 58.8897 21.3315 59 22.3795C59 22.6001 59 22.8207 59 23.0965V24.7512C59 25.0269 59 25.2476 59 25.413C58.8897 26.5161 58.6691 27.4538 58.283 28.3363C57.8969 29.2188 57.4005 29.9909 56.7386 30.5977C56.0768 31.2044 55.3046 31.7008 54.4221 32.0869C53.5396 32.4178 52.4917 32.6384 51.3334 32.6384C50.1751 32.6384 49.1272 32.473 48.2447 32.0869C47.3622 31.7559 46.59 31.2595 45.9281 30.5977C45.2663 29.9909 44.7699 29.2188 44.3838 28.3363C43.9977 27.4538 43.7771 26.461 43.6667 25.413C43.6667 25.2476 43.6667 25.0269 43.6667 24.7512C43.6667 24.4754 43.6667 24.1996 43.6667 23.9238C43.6667 23.648 43.6667 23.3723 43.6667 23.0965C43.6667 22.8207 43.6667 22.6001 43.6667 22.3795C43.7771 21.3315 43.9977 20.3387 44.3838 19.4562C44.7699 18.5737 45.2663 17.8015 45.9281 17.1948C46.59 16.5881 47.3622 16.0917 48.2447 15.7056C49.1272 15.3195 50.1751 15.1541 51.3334 15.1541ZM56.0768 25.2476C56.0768 24.8615 56.1319 24.4202 56.1319 23.9238C56.1319 23.4274 56.132 22.931 56.0768 22.5449C56.0216 21.8831 55.8561 21.2763 55.6355 20.7248C55.4149 20.1732 55.1391 19.6768 54.753 19.2907C54.367 18.9046 53.8706 18.5737 53.319 18.2979C52.7675 18.0773 52.1056 17.967 51.3334 17.967C50.5612 17.967 49.8993 18.0773 49.3478 18.2979C48.7962 18.5185 48.2998 18.8495 47.9137 19.2907C47.5276 19.6768 47.1967 20.1732 47.0312 20.7248C46.8106 21.2763 46.7003 21.8831 46.59 22.5449C46.59 22.931 46.5348 23.3723 46.5348 23.9238C46.5348 24.4754 46.5348 24.9166 46.59 25.2476C46.6452 25.9094 46.8106 26.5161 47.0312 27.0677C47.2519 27.6193 47.5276 28.1156 47.9137 28.5017C48.2998 28.8878 48.7962 29.2188 49.3478 29.4945C49.8993 29.7152 50.5612 29.8255 51.3334 29.8255C52.1056 29.8255 52.7675 29.7152 53.319 29.4945C53.8706 29.2739 54.367 28.943 54.753 28.5017C55.1391 28.1156 55.4149 27.6193 55.6355 27.0677C55.8561 26.5161 55.9665 25.9094 56.0768 25.2476Z" fill="white"/>
</svg>
