<svg width="10" height="10" viewBox="0 0 10 10" fill="none" xmlns="http://www.w3.org/2000/svg">
<path d="M7.98392 1.00164C8.40646 0.998364 8.79548 0.96796 9.17936 1.1705C10.408 1.81851 9.85653 3.41888 9.98033 4.53386C9.94291 4.94222 9.44193 5.15069 9.13711 4.8613C9.08799 4.81468 8.98181 4.64254 8.98181 4.58002V3.99531H0.998672V8.55599C0.998672 8.747 1.26592 8.98805 1.45895 8.98446L4.57331 8.98852C5.1354 9.10951 5.12387 9.87508 4.56021 9.98142L1.38099 9.98251C0.644576 9.91734 0.0545722 9.32702 0 8.5878V2.41194C0.0464644 1.65526 0.656426 1.04701 1.41108 1.00101C1.60177 0.989321 1.80447 1.01099 1.99641 1.00164V0.416936C1.99641 0.400564 2.041 0.293915 2.0527 0.270526C2.20191 -0.0236958 2.61074 -0.0868436 2.8468 0.143295C2.89763 0.192878 2.9943 0.365482 2.9943 0.432372V0.978094L3.01769 1.00148H6.96248L6.98587 0.978094V0.432528C6.98587 0.174012 7.3133 -0.025255 7.55373 0.00499365C7.72696 0.0268225 7.98376 0.233885 7.98376 0.416936V1.00164H7.98392ZM8.98181 2.99742V2.42831C8.98181 2.2384 8.72672 2.00779 8.53759 1.99937L1.4156 2.00327C1.23723 2.02229 0.998672 2.24776 0.998672 2.42831V2.99742H8.98181Z" fill="#E0822D"/>
<path d="M5.77977 9.30313C4.50948 8.11112 4.82117 6.00354 6.38817 5.24545C8.38879 4.2775 10.5555 6.19392 9.8468 8.29869C9.27052 10.0104 7.09917 10.5411 5.77977 9.30313ZM7.35738 5.99621C6.20216 6.09226 5.58658 7.43739 6.27825 8.37572C6.93389 9.2654 8.31395 9.1561 8.81648 8.17239C9.35098 7.12601 8.52538 5.89907 7.35738 5.99605V5.99621Z" fill="#E0822D"/>
<path d="M7.41915 6.24544C7.6588 6.2194 7.88707 6.35146 7.95988 6.58472C8.02319 6.78757 7.96004 7.06043 7.98717 7.27467C8.16149 7.49467 8.46865 7.65371 8.48362 7.96321C8.50171 8.33883 8.11284 8.59656 7.77044 8.44251C7.65615 8.39106 7.2124 7.94653 7.11838 7.83162C7.04089 7.73682 6.9952 7.63625 6.98553 7.51229C6.97119 7.33064 6.96324 6.72271 7.01251 6.57131C7.06739 6.40229 7.24405 6.26446 7.41915 6.24528V6.24544Z" fill="#E0822D"/>
</svg>
