<svg width="30" height="31" viewBox="0 0 30 31" fill="none" xmlns="http://www.w3.org/2000/svg">
<path d="M0 3C0 1.34314 1.34315 0 3 0H30V30.8898H3C1.34315 30.8898 0 29.5467 0 27.8898V3Z" fill="#E0822D"/>
<path d="M8.45563 8.28012L11.8191 8.27319C12.0557 8.30364 12.2811 8.55629 12.2919 8.82974C12.3606 10.7349 12.1967 12.7256 12.2897 14.6208C12.3353 15.5494 12.638 16.4071 13.3025 16.9854C15.0728 18.5263 17.5849 17.2076 17.7103 14.7112C17.8073 12.7784 17.6353 10.7442 17.7092 8.8008C17.7442 8.5192 17.955 8.29881 18.2068 8.27198C19.2471 8.16164 20.4408 8.35761 21.4972 8.27228C21.7463 8.33017 21.953 8.57016 21.9695 8.85959C21.7784 12.7244 22.7485 16.8784 20.2299 20.0314C16.1379 25.1555 8.55995 22.3076 8.05882 15.4635C7.90085 13.306 8.12136 11.0032 8.03051 8.82974C8.04858 8.56684 8.23485 8.35519 8.45563 8.28012ZM11.2395 9.47915H9.13683V11.5594H11.2395V9.47915ZM20.8901 9.47915H18.7875V11.4991H20.8497L20.8901 11.4539V9.47915ZM9.13683 12.7353C9.09775 14.8828 9.05785 16.8509 10.2092 18.6662C12.8876 22.8892 18.7489 22.1288 20.4715 17.317C21.0074 15.8201 20.8858 14.3609 20.8915 12.779L20.8497 12.675H18.7875C18.7589 13.6946 18.8807 14.7269 18.6395 15.7203C17.8515 18.965 14.1029 19.8643 12.1423 17.3484C11.1074 16.0206 11.229 14.3929 11.2395 12.7353H9.13683Z" fill="#FEFEFE"/>
</svg>
