<svg width="44" height="26" viewBox="0 0 44 26" fill="none" xmlns="http://www.w3.org/2000/svg">
<rect x="0.35" y="0.35" width="43.3" height="25.3" rx="1.65" fill="#FEFEFE" stroke="#DADCE0" stroke-width="0.7"/>
<path d="M11.0568 16.304V9.74148H12.1705V16.304H11.0568ZM8.33239 13.5795V12.4659H14.8949V13.5795H8.33239Z" fill="#212425"/>
<path d="M22.4556 6.04282L25.8191 6.03588C26.0557 6.06633 26.2811 6.31898 26.2919 6.59244C26.3606 8.49756 26.1967 10.4883 26.2897 12.3835C26.3353 13.3121 26.638 14.1698 27.3025 14.7481C29.0728 16.289 31.5849 14.9703 31.7103 12.4739C31.8073 10.5411 31.6353 8.50691 31.7092 6.56349C31.7442 6.2819 31.955 6.06151 32.2068 6.03468C33.2471 5.92433 34.4408 6.1203 35.4972 6.03498C35.7463 6.09286 35.953 6.33285 35.9695 6.62228C35.7784 10.4871 36.7485 14.6411 34.2299 17.794C30.1379 22.9182 22.56 20.0703 22.0588 13.2262C21.9009 11.0687 22.1214 8.76589 22.0305 6.59244C22.0486 6.32954 22.2348 6.11789 22.4556 6.04282ZM25.2395 7.24185H23.1368V9.32214H25.2395V7.24185ZM34.8901 7.24185H32.7875V9.26184H34.8497L34.8901 9.21662V7.24185ZM23.1368 10.498C23.0977 12.6455 23.0578 14.6136 24.2092 16.4289C26.8876 20.6519 32.7489 19.8915 34.4715 15.0797C35.0074 13.5828 34.8858 12.1236 34.8915 10.5417L34.8497 10.4377H32.7875C32.7589 11.4573 32.8807 12.4896 32.6395 13.483C31.8515 16.7277 28.1029 17.627 26.1423 15.1111C25.1074 13.7833 25.229 12.1556 25.2395 10.498H23.1368Z" fill="#E0822D"/>
</svg>
