<svg width="58" height="26" viewBox="0 0 58 26" fill="none" xmlns="http://www.w3.org/2000/svg">
<rect x="0.35" y="0.35" width="57.3" height="25.3" rx="1.65" fill="#FEFEFE" stroke="#DADCE0" stroke-width="0.7"/>
<path d="M13.0568 16.2102V9.64773H14.1705V16.2102H13.0568ZM10.3324 13.4858V12.3722H16.8949V13.4858H10.3324ZM19.0439 15.9119V14.8977L23.5183 7.81818H24.2541V9.3892H23.7569L20.3762 14.7386V14.8182H26.4018V15.9119H19.0439ZM23.8365 18V15.6037V15.1314V7.81818H25.0098V18H23.8365Z" fill="#212425"/>
<path d="M34.4556 6.04282L37.8191 6.03588C38.0557 6.06633 38.2811 6.31898 38.2919 6.59244C38.3606 8.49756 38.1967 10.4883 38.2897 12.3835C38.3353 13.3121 38.638 14.1698 39.3025 14.7481C41.0728 16.289 43.5849 14.9703 43.7103 12.4739C43.8073 10.5411 43.6353 8.50691 43.7092 6.56349C43.7442 6.2819 43.955 6.06151 44.2068 6.03468C45.2471 5.92433 46.4408 6.1203 47.4972 6.03498C47.7463 6.09286 47.953 6.33285 47.9695 6.62228C47.7784 10.4871 48.7485 14.6411 46.2299 17.794C42.1379 22.9182 34.56 20.0703 34.0588 13.2262C33.9009 11.0687 34.1214 8.76589 34.0305 6.59244C34.0486 6.32954 34.2348 6.11789 34.4556 6.04282ZM37.2395 7.24185H35.1368V9.32214H37.2395V7.24185ZM46.8901 7.24185H44.7875V9.26184H46.8497L46.8901 9.21662V7.24185ZM35.1368 10.498C35.0977 12.6455 35.0578 14.6136 36.2092 16.4289C38.8876 20.6519 44.7489 19.8915 46.4715 15.0797C47.0074 13.5828 46.8858 12.1236 46.8915 10.5417L46.8497 10.4377H44.7875C44.7589 11.4573 44.8807 12.4896 44.6395 13.483C43.8515 16.7277 40.1029 17.627 38.1423 15.1111C37.1074 13.7833 37.229 12.1556 37.2395 10.498H35.1368Z" fill="#E0822D"/>
</svg>
