<svg width="45" height="44" viewBox="0 0 45 44" fill="none" xmlns="http://www.w3.org/2000/svg">
<rect width="45" height="44" rx="3" fill="#E0822D"/>
<path d="M28.8922 15.8782L24.2158 11.1716L23.9473 11.0054L15.5033 11C14.6364 11.1406 14.0197 11.866 14.0015 12.7449L14 28.8528C14.0102 29.7704 14.6627 30.517 15.5726 30.6295H21.7598V29.4792H15.7005C15.419 29.4537 15.1743 29.2174 15.1761 28.9295V12.667C15.1423 12.4755 15.4573 12.1439 15.6248 12.1439H23.2054L23.2041 14.97C23.2181 15.6368 23.5722 16.2831 24.1851 16.5713C24.2835 16.6176 24.6353 16.7459 24.7266 16.7459H27.8074V22.6296H28.9845V16.2461L28.8922 15.8782ZM24.8289 15.5954C24.6854 15.5954 24.3814 15.2963 24.3814 15.148V12.9876L26.9893 15.5954H24.8289Z" fill="#FEFEFE" stroke="#FEFEFE" stroke-width="0.2"/>
<path d="M17.9312 18.8972L22.297 18.8911C22.9776 19.008 22.9776 19.925 22.297 20.0419H17.9762C17.3202 19.9309 17.2864 19.0601 17.9312 18.8972Z" fill="#FEFEFE" stroke="#FEFEFE" stroke-width="0.2"/>
<path d="M25.5146 22.6296H22.5647C22.1792 22.6296 21.857 22.9003 21.778 23.2621H17.9762C17.3202 23.1511 17.2864 22.2803 17.9312 22.1175L25.0074 22.1113C25.3226 22.1653 25.4916 22.3913 25.5146 22.6296Z" fill="#FEFEFE" stroke="#FEFEFE" stroke-width="0.2"/>
<path d="M21.7594 25.2212V26.3663H17.953C17.3152 26.2311 17.2983 25.3838 17.9313 25.2243L21.7594 25.2212Z" fill="#FEFEFE" stroke="#FEFEFE" stroke-width="0.2"/>
<path d="M31.4128 33.5997H22.5646C21.8385 33.5997 21.2479 33.0091 21.2479 32.283V23.4349C21.2479 22.7088 21.8385 22.1182 22.5646 22.1182H31.4128C32.1389 22.1182 32.7295 22.7088 32.7295 23.4349V32.283C32.7295 33.0091 32.1389 33.5997 31.4128 33.5997ZM22.5649 23.1411C22.4028 23.1411 22.2709 23.273 22.2709 23.4351V32.2833C22.2709 32.4454 22.4028 32.5773 22.5649 32.5773H31.4131C31.5752 32.5773 31.7071 32.4454 31.7071 32.2833V23.4351C31.7071 23.273 31.5752 23.1411 31.4131 23.1411H22.5649Z" fill="#FEFEFE" stroke="#FEFEFE" stroke-width="0.2"/>
<path d="M30.5588 25.99C30.5278 25.5914 30.346 25.2033 30.0472 24.8972C29.5213 24.3588 28.6034 24.0781 27.8313 24.7341C27.7369 24.8141 27.3092 25.2204 27.2371 25.3367C27.0835 25.5847 27.1745 25.8404 27.3327 25.9838C27.4915 26.1278 27.7589 26.1909 27.9985 26.0076C28.0765 25.948 28.157 25.8608 28.2424 25.7683C28.3948 25.6036 28.5674 25.417 28.7205 25.3996C29.1204 25.3546 29.3758 25.607 29.4729 25.8371C29.5703 26.0677 29.5668 26.4024 29.2625 26.6519C29.0214 26.8613 28.7923 27.1021 28.5707 27.335C28.3546 27.5621 28.1312 27.7968 27.9013 27.997C27.6909 28.1803 27.482 28.2828 27.3435 28.2705C27.2489 28.2623 27.1819 28.2058 27.1042 28.1406C27.0185 28.0685 26.9211 27.9867 26.7777 27.9752C26.61 27.9614 26.4509 28.0179 26.3423 28.1297C26.2359 28.2391 26.1871 28.3886 26.2047 28.551C26.2395 28.8706 26.726 29.1633 26.9889 29.2375C27.1272 29.2766 27.2588 29.2942 27.3841 29.2942C28.0412 29.2942 28.5323 28.809 28.9739 28.3728C29.0222 28.325 29.07 28.2777 29.1178 28.2314C29.1958 28.1555 29.2771 28.078 29.3597 27.9995C29.6146 27.7564 29.8779 27.505 30.0996 27.256C30.435 26.8794 30.5938 26.4417 30.5585 25.9902L30.5588 25.99Z" fill="#FEFEFE" stroke="#FEFEFE" stroke-width="0.2"/>
<path d="M27.811 26.9791C27.7483 26.8948 27.5901 26.768 27.5085 26.7176C26.9079 26.3469 26.145 26.4829 25.467 27.0814C24.9534 27.535 24.4602 28.0675 23.9831 28.5824L23.8491 28.7269L23.8445 28.7346C23.2951 29.6376 23.617 30.5081 24.1794 30.9706C24.4684 31.2079 24.8501 31.3626 25.2604 31.3626C25.6618 31.3626 26.0906 31.2148 26.4866 30.852C26.4899 30.8489 26.8228 30.5396 26.8847 30.4271C27.0299 30.1632 26.9481 29.8575 26.6945 29.7158C26.3365 29.5161 26.0824 29.7851 25.8784 30.0011C25.793 30.0914 25.7124 30.1768 25.6309 30.2277C25.4105 30.365 25.1469 30.3724 24.9263 30.2476C24.7071 30.1236 24.5788 29.8958 24.5831 29.6381C24.5875 29.3742 24.791 29.1779 24.9879 28.9879C25.0191 28.958 25.0497 28.9284 25.0791 28.899C25.173 28.8051 25.2671 28.709 25.3668 28.6075C25.6094 28.3598 25.8605 28.1036 26.1023 27.8878C26.461 27.5674 26.7479 27.4652 26.955 27.5838C26.9798 27.5981 27.0054 27.6211 27.0327 27.6457C27.0621 27.672 27.0923 27.6994 27.1276 27.7208C27.3825 27.8765 27.6409 27.7883 27.7841 27.6316C27.9247 27.4779 27.9874 27.2167 27.8112 26.9791H27.811Z" fill="#FEFEFE" stroke="#FEFEFE" stroke-width="0.2"/>
</svg>
