<svg width="16" height="16" viewBox="0 0 16 16" fill="none" xmlns="http://www.w3.org/2000/svg">
<path d="M9.78592 2.51786L10.6513 2.86901C10.7977 2.7605 10.9111 2.61356 11.0652 2.51311C11.9884 1.91163 12.7397 2.62107 13.3238 3.28897C13.8162 3.85202 13.8391 4.53566 13.3505 5.10951C13.2936 5.1763 13.121 5.29945 13.1344 5.37978L13.4821 6.21402C14.1417 6.15692 14.7866 6.44257 15.0031 7.09931C15.1004 7.39465 15.1046 8.24078 15.0658 8.56338C15.0049 9.07136 14.6058 9.51382 14.1165 9.6452C13.9017 9.70284 13.6958 9.68711 13.4771 9.70522L13.1307 10.5623C13.3227 10.785 13.5359 10.9799 13.6341 11.2679C13.9236 12.1155 13.283 12.736 12.7007 13.2433C12.1417 13.7304 11.4581 13.7452 10.8901 13.2616C10.8233 13.2047 10.7001 13.0321 10.6198 13.0455L9.78555 13.3931C9.84082 14.0508 9.56414 14.6837 8.91399 14.9096C8.61901 15.012 7.76044 15.0159 7.43619 14.9769C6.82501 14.9037 6.35363 14.3697 6.30606 13.7648C6.3002 13.6914 6.32436 13.4111 6.28776 13.3805L5.43724 13.0416C5.39186 13.0462 5.25736 13.2111 5.20814 13.253C4.61892 13.7527 3.94406 13.7328 3.36839 13.2257C2.60881 12.5565 1.92645 11.758 2.74641 10.7913C2.80241 10.7254 2.96764 10.6127 2.95429 10.5309L2.60661 9.69662C1.94694 9.75371 1.3021 9.46807 1.08562 8.81133C0.988276 8.51599 0.984067 7.66986 1.02286 7.34725C1.09642 6.73425 1.62873 6.26489 2.23497 6.21713C2.29517 6.21237 2.59197 6.23085 2.61174 6.2056L2.95813 5.34849C2.76508 5.12524 2.55592 4.9353 2.45473 4.64289C2.16378 3.80261 2.80149 3.18028 3.37827 2.67596C3.95157 2.17458 4.62606 2.16342 5.20869 2.65766C5.27145 2.71091 5.38673 2.87944 5.46908 2.86554L6.29801 2.52152C6.30276 2.20038 6.30697 1.91108 6.45812 1.62031C6.64879 1.25342 7.05319 0.967414 7.46876 0.92917C7.77727 0.900624 8.5643 0.898428 8.84555 0.978942C9.53541 1.17639 9.84631 1.83404 9.78629 2.51786H9.78592ZM7.52786 1.75719C7.42118 1.77256 7.30791 1.84429 7.24002 1.92681C6.95456 2.27394 7.35348 2.98979 6.90424 3.20132C6.70296 3.29611 6.40579 3.35173 6.1787 3.44561C5.97833 3.5285 5.6656 3.73619 5.49286 3.7845C4.89907 3.95065 4.71993 2.86901 4.09137 3.16985C3.97846 3.22383 3.41779 3.78267 3.32392 3.90289C2.95264 4.37884 3.52502 4.67089 3.78139 4.9816C4.05367 5.31171 3.73857 5.62901 3.59474 5.94868C3.53545 6.08044 3.4822 6.21822 3.43298 6.35418C3.33856 6.61421 3.32538 6.99757 2.98302 7.03874C2.60313 7.0843 1.90083 6.88137 1.84154 7.47095C1.81885 7.69658 1.81702 8.21681 1.84118 8.4406C1.85399 8.55863 1.92462 8.68544 2.01556 8.76028C2.36287 9.04574 3.07853 8.64683 3.29007 9.09606C3.38486 9.29735 3.44048 9.59452 3.53436 9.8216C3.61853 10.0249 3.82347 10.3303 3.87325 10.5074C4.04031 11.1021 2.95685 11.2782 3.25859 11.9089C3.31258 12.0218 3.87142 12.5825 3.99164 12.6764C4.58818 13.1419 4.86979 12.1475 5.30878 12.1099C5.53605 12.0903 5.82407 12.3091 6.03743 12.4056C6.169 12.465 6.30716 12.5181 6.44293 12.5673C6.70296 12.6617 7.08631 12.6749 7.12749 13.0173C7.17342 13.4006 6.96902 14.0951 7.55952 14.1589C7.77727 14.1825 8.31196 14.1825 8.52953 14.1589C8.64756 14.1461 8.77419 14.0755 8.84921 13.9846C9.13339 13.6394 8.73667 12.9212 9.18499 12.7101C9.39561 12.6109 9.70449 12.5565 9.93908 12.4577C10.1731 12.3593 10.5459 12.0908 10.781 12.1088C11.2 12.141 11.4293 13.0134 11.9977 12.7413C12.1106 12.6874 12.6713 12.1285 12.7651 12.0083C13.1364 11.5323 12.564 11.2403 12.3077 10.9296C12.2012 10.8004 12.1697 10.6904 12.2109 10.5208C12.2495 10.3616 12.4705 10.0231 12.5492 9.83441C12.5889 9.73908 12.6253 9.64045 12.6608 9.54346C12.7542 9.28673 12.7655 8.91344 13.1062 8.87263C13.4896 8.8267 14.184 9.0311 14.2479 8.4406C14.2715 8.22285 14.2715 7.68816 14.2479 7.47059C14.2351 7.35256 14.1644 7.22575 14.0735 7.15091C13.7262 6.86545 13.0105 7.26436 12.799 6.81513C12.7042 6.61384 12.6486 6.31667 12.5547 6.08958C12.4705 5.88629 12.2656 5.58088 12.2158 5.40375C12.0491 4.81051 13.1311 4.63063 12.8305 4.00225C12.7765 3.88935 12.2176 3.32868 12.0974 3.23481C11.6213 2.86334 11.3305 3.43518 11.0187 3.69227C10.8895 3.79877 10.7795 3.83024 10.6099 3.78907C10.4492 3.7501 10.1248 3.53216 9.9389 3.45366C9.80806 3.3984 9.67045 3.35448 9.53633 3.30727C9.29771 3.22328 9.00017 3.21468 8.96156 2.8939C8.916 2.51402 9.11893 1.81172 8.52935 1.75243C8.31013 1.73047 7.73994 1.72644 7.52786 1.757V1.75719Z" fill="#212425" stroke="#212425" stroke-width="0.5"/>
<path d="M7.80311 4.90569C10.4401 4.71666 12.081 7.71033 10.4674 9.82071C9.22601 11.4442 6.76338 11.3981 5.56719 9.74734C4.1732 7.82359 5.44148 5.07495 7.80311 4.90569ZM7.858 5.72913C6.10243 5.86746 5.19756 7.92936 6.28047 9.32702C7.19486 10.5073 9.01521 10.4668 9.87123 9.24284C10.9594 7.6869 9.74277 5.58054 7.858 5.72913Z" fill="#212425" stroke="#212425" stroke-width="0.5"/>
</svg>
