<svg width="24" height="24" viewBox="0 0 24 24" fill="none" xmlns="http://www.w3.org/2000/svg">
<g clip-path="url(#clip0_528_389)">
<path d="M8.21 8.71H8.71V5.37C8.71 4.71 8.51 4.06 8.15 3.51C7.78 2.96 7.26 2.53 6.65 2.28C6.04 2.03 5.37 1.96 4.72 2.09C4.07 2.22 3.48 2.54 3.01 3C2.54 3.47 2.22 4.06 2.1 4.71C1.97 5.36 2.04 6.03 2.29 6.64C2.54 7.25 2.97 7.77 3.52 8.14C4.07 8.51 4.72 8.7 5.38 8.7H8.22L8.21 8.71ZM8.71 15.79V15.29H5.37C4.71 15.29 4.06 15.49 3.51 15.85C2.96 16.22 2.53 16.74 2.28 17.35C2.03 17.96 1.96 18.63 2.09 19.28C2.22 19.93 2.54 20.52 3 20.99C3.47 21.46 4.06 21.78 4.71 21.9C5.36 22.03 6.03 21.96 6.64 21.71C7.25 21.46 7.77 21.03 8.14 20.48C8.51 19.93 8.7 19.28 8.7 18.62V15.78L8.71 15.79ZM15.29 8.21V8.71H18.63C19.29 8.71 19.94 8.51 20.49 8.15C21.04 7.78 21.47 7.26 21.72 6.65C21.97 6.04 22.04 5.37 21.91 4.72C21.78 4.07 21.46 3.48 21 3.01C20.53 2.54 19.94 2.22 19.29 2.1C18.64 1.97 17.97 2.04 17.36 2.29C16.75 2.54 16.23 2.97 15.86 3.52C15.49 4.07 15.3 4.72 15.3 5.38V8.22L15.29 8.21ZM15.79 15.29H15.29V18.63C15.29 19.29 15.49 19.94 15.85 20.49C16.22 21.04 16.74 21.47 17.35 21.72C17.96 21.97 18.63 22.04 19.28 21.91C19.93 21.78 20.52 21.46 20.99 21C21.46 20.53 21.78 19.94 21.9 19.29C22.03 18.64 21.96 17.97 21.71 17.36C21.46 16.75 21.03 16.23 20.48 15.86C19.93 15.49 19.28 15.3 18.62 15.3H15.78L15.79 15.29ZM5.37 0.5C6.01 0.5 6.64 0.63 7.23 0.87C7.82 1.11 8.36 1.47 8.81 1.93C9.26 2.38 9.62 2.92 9.87 3.51C10.11 4.1 10.24 4.73 10.24 5.37V10.24H5.37C4.08 10.24 2.84 9.73 1.93 8.81C1.02 7.9 0.5 6.66 0.5 5.37C0.5 4.08 1.01 2.84 1.93 1.93C2.84 1.02 4.08 0.5 5.37 0.5ZM5.37 13.76H10.24V18.63C10.24 19.59 9.95 20.53 9.42 21.33C8.89 22.13 8.12 22.75 7.24 23.12C6.35 23.49 5.37 23.58 4.43 23.4C3.49 23.21 2.62 22.75 1.94 22.07C1.26 21.39 0.8 20.52 0.61 19.58C0.42 18.64 0.52 17.66 0.89 16.77C1.26 15.88 1.88 15.12 2.68 14.59C3.48 14.06 4.18661 13.76 5.14661 13.76H5.37ZM18.63 0.5C19.92 0.5 21.16 1.01 22.07 1.93C22.98 2.84 23.5 4.08 23.5 5.37C23.5 6.66 22.99 7.9 22.07 8.81C21.16 9.72 19.92 10.24 18.63 10.24H13.76V5.37C13.76 4.08 14.27 2.84 15.19 1.93C16.1 1.02 17.34 0.5 18.63 0.5ZM13.76 13.76H18.63C19.59 13.76 20.53 14.05 21.33 14.58C22.13 15.11 22.75 15.88 23.12 16.76C23.49 17.65 23.58 18.63 23.4 19.57C23.21 20.51 22.75 21.38 22.07 22.06C21.39 22.74 20.52 23.2 19.58 23.39C18.64 23.58 17.66 23.48 16.77 23.11C15.88 22.74 15.12 22.12 14.59 21.32C14.06 20.52 13.77 19.58 13.77 18.62L13.76 14.4046V13.76Z" fill="#E0822D" stroke="#E0822D" stroke-width="1.3" stroke-miterlimit="10"/>
</g>
<defs>
<clipPath id="clip0_528_389">
<rect width="24" height="24" fill="white"/>
</clipPath>
</defs>
</svg>
