<svg width="18" height="17" viewBox="0 0 18 17" fill="none" xmlns="http://www.w3.org/2000/svg">
<path d="M8.51585 16.6145C15.0059 16.9756 19.2603 9.96319 15.7186 4.58554C12.4763 -0.337198 5.04399 -0.157478 2.06252 4.91812C-0.886755 9.93877 2.6385 16.2875 8.51585 16.6145ZM10.7419 11.7382C10.5859 12.6744 10.3781 13.6877 9.95555 14.546C9.78261 14.8969 9.36235 15.6378 8.88844 15.5418C8.41702 15.4466 7.94735 14.38 7.79687 13.9729C7.53034 13.2526 7.36264 12.4961 7.24834 11.7382H10.7422H10.7419ZM2.70613 11.7382H6.21243C6.27257 11.8256 6.26134 11.974 6.28205 12.0851C6.49817 13.2428 6.77992 14.4188 7.39758 15.4378C7.4148 15.4913 6.70905 15.2717 6.66063 15.2554C5.19248 14.7546 3.84212 13.6775 3.0353 12.3806C2.99088 12.3091 2.67319 11.7692 2.70613 11.7382ZM15.2839 11.7382C15.2142 11.9521 15.0762 12.1853 14.9547 12.3806C14.1396 13.6904 12.7928 14.7563 11.3102 15.261C11.265 15.2764 10.5732 15.4974 10.5924 15.4378C11.2565 14.3275 11.5555 13.044 11.7444 11.7789L11.7778 11.7384H15.2841L15.2839 11.7382ZM6.12508 10.7614H2.31932C2.24345 10.6215 2.20477 10.4323 2.16933 10.2733C1.97243 9.38838 1.95372 8.49858 2.11443 7.60633C2.15885 7.35922 2.21825 7.08085 2.31932 6.85449H6.12508C5.99007 8.15232 5.99007 9.46505 6.12508 10.7614ZM10.8667 10.7614H7.12331L7.02224 9.30975V8.28199L7.12331 6.85449H10.8667L10.9675 8.28199V9.30975L10.8667 10.7614ZM11.8649 6.85449H15.6707C15.7463 6.99441 15.7855 7.18365 15.8207 7.34261C16.0253 8.2688 16.0363 9.20085 15.8499 10.1309C15.8084 10.338 15.762 10.5741 15.6707 10.7614H11.8649L11.9657 9.38276V8.25732L11.8649 6.85449ZM6.21243 5.87776H2.70613C2.77576 5.66434 2.91352 5.43017 3.0353 5.23531C3.84686 3.93748 5.18849 2.86283 6.66063 2.36054C6.70905 2.34394 7.41455 2.12466 7.39758 2.17813C6.7335 3.28844 6.43453 4.57186 6.24562 5.83698L6.21218 5.87751L6.21243 5.87776ZM10.7419 5.87776H7.24809C7.36239 5.11981 7.53009 4.36333 7.79662 3.64299C7.94636 3.23813 8.42077 2.16861 8.88819 2.07411C9.35561 1.97961 9.7866 2.73267 9.96104 3.08894C10.3805 3.94602 10.5882 4.94351 10.7419 5.87776ZM15.2839 5.87776H11.7776C11.7174 5.74541 11.7109 5.56203 11.6825 5.40917C11.4734 4.2913 11.1874 3.16171 10.5924 2.17813C10.5742 2.121 11.263 2.33881 11.3102 2.35492C12.8033 2.86234 14.1314 3.91867 14.9552 5.23482C14.9986 5.30441 15.3161 5.84748 15.2839 5.87776Z" fill="#212425" stroke="#212425" stroke-width="0.4"/>
</svg>
